<svg width="67" height="94" viewBox="0 0 67 94" fill="none" xmlns="http://www.w3.org/2000/svg">
<g clip-path="url(#clip0_11_65)">
<path d="M67 18.4732L60.8961 86.4394L33.459 94L6.09741 86.4501L0 18.4732H67Z" fill="#264DE4"/>
<path d="M55.6705 82.1116L60.8867 24.0313H33.5V88.221L55.6705 82.1116Z" fill="#2965F1"/>
<path d="M13.9781 49.243L14.7299 57.58H33.5V49.243H13.9781Z" fill="#EBEBEB"/>
<path d="M33.5 32.3685H33.471H12.4677L13.2301 40.7057H33.5V32.3685Z" fill="#EBEBEB"/>
<path d="M33.5 79.5694V70.8953L33.4633 70.905L24.1218 68.3979L23.5247 61.7487H18.9855H15.1047L16.2799 74.8391L33.4614 79.58L33.5 79.5694Z" fill="#EBEBEB"/>
<path d="M15.7679 0H25.9269V4.22266H20.0162V8.44531H25.9269V12.668H15.7679V0Z" fill="black"/>
<path d="M27.9587 0H38.1177V3.67188H32.207V4.40625H38.1177V12.8516H27.9587V8.99609H33.8694V8.26172H27.9587V0Z" fill="black"/>
<path d="M40.1494 0H50.3084V3.67188H44.3977V4.40625H50.3084V12.8516H40.1494V8.99609H46.0601V8.26172H40.1494V0Z" fill="black"/>
<path d="M43.7995 57.58L42.8259 68.3925L33.4709 70.9023V79.576L50.6662 74.8391L50.7923 73.4305L52.7634 51.4817L52.968 49.243L54.4823 32.3685H33.4709V40.7057H45.2901L44.5269 49.243H33.4709V57.58H43.7995Z" fill="white"/>
</g>
<defs>
<clipPath id="clip0_11_65">
<rect width="67" height="94" fill="white"/>
</clipPath>
</defs>
</svg>
