<svg width="89" height="89" viewBox="0 0 89 89" fill="none" xmlns="http://www.w3.org/2000/svg">
<path d="M18.843 0H22.841V3.96328H26.5262V0H30.5242V11.9941H26.5262V7.99609H22.8758V11.9941H18.843M35.8086 3.99805H32.2799V0H43.3527V3.99805H39.8066V11.9941H35.8086M45.1084 0H49.2976L51.8703 4.22402L54.443 0H58.6322V11.9941H54.6342V6.04922L51.8355 10.3602L49.0369 6.04922V11.9941H45.1084M60.6139 0H64.6119V8.03086H70.2787V11.9941H60.6139" fill="black"/>
<path d="M18.7039 81.8731L12.9676 17.4871H76.0324L70.2961 81.8383L44.4479 89" fill="#E44D26"/>
<path d="M44.5 83.5244V22.7715H70.2787L65.3594 77.7012" fill="#F16529"/>
<path d="M24.6836 30.6459H44.5V38.5377H33.3402L34.0703 46.6207H44.5V54.4951H26.8391M27.1867 58.4584H35.1133L35.6695 64.7684L44.5 67.1324V75.3719L28.2992 70.8524" fill="#EBEBEB"/>
<path d="M64.2469 30.6459H44.4652V38.5377H63.5168M62.8041 46.6207H44.4652V54.5125H54.1996L53.2783 64.7684L44.4652 67.1324V75.3371L60.6312 70.8524" fill="white"/>
</svg>
