<svg width="94" height="94" viewBox="0 0 94 94" fill="none" xmlns="http://www.w3.org/2000/svg">
<path d="M5.875 5.875V88.125H88.125V5.875H5.875ZM50.6366 70.0212C50.6366 78.0259 45.9366 81.6801 39.0893 81.6801C32.9029 81.6801 29.3221 78.4871 27.4862 74.6125L33.7842 70.8114C34.9974 72.9587 36.0989 74.777 38.7603 74.777C41.2924 74.777 42.9081 73.7841 42.9081 69.9125V43.6395H50.6366V70.0212ZM68.9196 81.6801C61.7404 81.6801 57.0962 78.2667 54.8372 73.7841L61.1353 70.1504C62.7891 72.85 64.954 74.8504 68.7551 74.8504C71.9482 74.8504 74.0074 73.2524 74.0074 71.0317C74.0074 68.3879 71.9129 67.4509 68.3703 65.8911L66.4433 65.0656C60.8621 62.698 57.1726 59.7047 57.1726 53.4067C57.1726 47.6051 61.5964 43.1989 68.4819 43.1989C73.4023 43.1989 76.9273 44.9056 79.4623 49.3853L73.4404 53.2422C72.1186 50.8746 70.6851 49.9375 68.4643 49.9375C66.2083 49.9375 64.7748 51.371 64.7748 53.2422C64.7748 55.5569 66.2083 56.4911 69.5306 57.9422L71.4576 58.7676C78.0318 61.5759 81.7213 64.4605 81.7213 70.9201C81.7213 77.8614 76.2487 81.6772 68.9226 81.6772L68.9196 81.6801Z" fill="white"/>
</svg>
