<svg width="98" height="86" viewBox="0 0 98 86" fill="none" xmlns="http://www.w3.org/2000/svg">
<g clip-path="url(#clip0_11_15)">
<path d="M49 51.6153C53.8241 51.6153 57.7348 47.7581 57.7348 43C57.7348 38.2419 53.8241 34.3846 49 34.3846C44.1759 34.3846 40.2652 38.2419 40.2652 43C40.2652 47.7581 44.1759 51.6153 49 51.6153Z" fill="white"/>
<path d="M49 60.6509C74.8853 60.6509 95.8696 52.7483 95.8696 43C95.8696 33.2516 74.8853 25.349 49 25.349C23.1147 25.349 2.13043 33.2516 2.13043 43C2.13043 52.7483 23.1147 60.6509 49 60.6509Z" stroke="white"/>
<path d="M33.5019 51.8255C46.4446 73.9363 63.8754 87.9094 72.4348 83.0352C80.9941 78.161 77.4408 56.2853 64.4981 34.1745C51.5554 12.0637 34.1246 -1.90942 25.5652 2.96476C17.0058 7.83893 20.5592 29.7146 33.5019 51.8255Z" stroke="white"/>
<path d="M33.5019 34.1745C20.5593 56.2853 17.0059 78.161 25.5652 83.0352C34.1246 87.9094 51.5554 73.9363 64.4981 51.8254C77.4408 29.7146 80.9942 7.83892 72.4348 2.96475C63.8754 -1.90943 46.4446 12.0637 33.5019 34.1745Z" stroke="white"/>
</g>
<defs>
<clipPath id="clip0_11_15">
<rect width="98" height="86" fill="white"/>
</clipPath>
</defs>
</svg>
